<svg width="287" height="198" viewBox="0 0 287 198" fill="none" xmlns="http://www.w3.org/2000/svg">
<path d="M63.5767 141.455L55.8494 188H47.3494L32.0085 158.705H31.6449L26.7585 188H16.9176L24.6449 141.455H33.2812L48.554 170.727H48.9403L53.7812 141.455H63.5767ZM63.9801 188L71.7074 141.455H103.071L101.707 149.568H80.1847L78.3665 160.659H98.2756L96.9119 168.773H77.0028L75.1847 179.886H96.7983L95.4347 188H63.9801ZM113.645 188L108.054 141.455H118.804L121.168 173.795H121.554L135.395 141.455H144.599L147.736 173.864H148.145L161.19 141.455H171.94L150.895 188H141.304L137.531 157.568H137.168L123.236 188H113.645ZM168.98 188L169.98 182.159L198.639 149.568H175.298L176.662 141.455H212.298L211.321 147.295L182.639 179.886H205.98L204.616 188H168.98ZM227.122 141.455L219.395 188H213.759L221.486 141.455H227.122ZM232.605 188H226.696L251.514 141.455H257.332L266.696 188H260.787L253.423 148.818H253.06L232.605 188ZM237.787 169.818H261.605L260.787 174.818H236.969L237.787 169.818Z" fill="#192E51"/>
<rect x="37" width="30.9091" height="30.8571" fill="#FF2950" fill-opacity="0.5"/>
<rect x="67.9091" width="30.9091" height="61.7143" fill="#FF2950" fill-opacity="0.75"/>
<rect width="30.8886" height="113.339" transform="matrix(0.778257 -0.627947 0.629226 0.777223 105 19.3965)" fill="#192E51"/>
<rect x="98.8182" width="30.9091" height="108" fill="#FF2950"/>
<rect x="176.091" width="30.9091" height="108" fill="#192E51"/>
</svg>
